<svg xmlns="http://www.w3.org/2000/svg" viewBox="0 0 491.72 335.16"><defs><style>.cls-1{isolation:isolate;}.cls-2{fill:#eaffd0;}.cls-3{fill:#f38181;}.cls-4{fill:#95e1d3;}.cls-5{fill:#f08a5d;mix-blend-mode:multiply;}.cls-6{fill:#fff;}.cls-7{fill:#f8f3d4;}.cls-8{fill:#e9b384;}.cls-9{fill:#f6416c;}.cls-10{fill:#201e28;}.cls-11{fill:#ffde7d;}.cls-12{fill:#00b8a9;}.cls-13{fill:#6b847e;}.cls-14{fill:#afac94;}.cls-15{fill:#c4c1a4;}.cls-16{fill:#534579;}</style></defs><g class="cls-1"><g id="Layer_2" data-name="Layer 2"><path class="cls-2" d="M246.74,62.92c-7.9,7.53-13.72,17.74-14.13,28.65-.49,13,6.62,25.19,15.48,34.72,6.07,6.53,13.33,12.35,21.93,14.71,12.32,3.38,26.05-1.12,35.29-9.95s14.27-21.46,15.51-34.18c1.4-14.29-2-29.48-11.53-40.23C290.07,34.91,264.53,46,246.74,62.92Z" transform="translate(-220.74 -6.95)"/><path class="cls-3" d="M694.18,87.78c6.73,6.91,13.09,14.52,16.3,23.61s2.76,20-3.26,27.51C699.68,148.34,685.38,150,674,146s-20.46-12.68-28.94-21.29c-12.4,12.78-7.85,33.65-11.7,51-.86,3.9-2.33,7.92-5.48,10.38-7.42,5.8-18.48-.66-23.38-8.7s-7.3-18-14.55-24c-4.46,17.32-25.94,27.11-42.77,21.06s-27.11-25.12-25.26-42.91S536.27,98.12,552.19,90c-9.48-.32-19.2-1.93-27.28-6.89S510.67,69.23,511,59.75c.33-9.28,6.54-17.28,13.31-23.63C549.7,12.26,597.59-2.61,630.66,14c11.49,5.78,16.87,16.44,23.42,26.92C665.37,59,679.42,72.62,694.18,87.78Z" transform="translate(-220.74 -6.95)"/><path class="cls-4" d="M513.09,115.77c.32-2.94.46-6-.82-8.7-2.11-4.38-7.34-6.2-12.13-7-23-3.93-47.81,5.34-69.37-3.55-7.76-3.2-14.48-8.57-22.23-11.79-18.41-7.64-39.35-2.17-58.5,3.37-9.15,12.56,3.27,31-2.23,45.51-5.83,15.4-26.9,17.17-39.53,27.72-14.82,12.38-15.51,36.11-6.32,53.09s25.84,28.49,42.51,38.21c23,13.39,48.29,24.91,74.86,24.36,30.09-.62,61.17-20.27,66.08-51,2.8-17.56,3.16-34.3,9-51.41C501,155.08,510.82,136.51,513.09,115.77Z" transform="translate(-220.74 -6.95)"/><path class="cls-5" d="M314.44,342.06c6.54-.31,13.34-1.89,18.22-6.27,9.89-8.88,8.68-26,18.78-34.62,8.84-7.58,22.05-5.37,33.62-4s26-.14,30.7-10.79c4.09-9.25-2.28-20.31-11-25.43s-19.17-6-29.1-8-20.42-5.47-26.14-13.8c-3.51-5.11-4.77-11.38-6.82-17.24-4.89-14-15.2-26.51-29-31.81-21.39-8.2-45.44,2-64.08,15.35-10.84,7.74-21.26,17.11-26,29.55-6.23,16.26-1.49,35.1,8.08,49.66C248.37,310.17,281.81,343.59,314.44,342.06Z" transform="translate(-220.74 -6.95)"/><path class="cls-6" d="M376.87,228.74C357,203.65,317.31,199.05,288,205a115.65,115.65,0,0,0-24.2,7.8c-.95.42-.13,1.82.82,1.4,25.12-11.2,54.36-13.14,80.53-4.33,11.18,3.76,22,9.77,29.72,18.89,9.07,10.78,11.61,25,11.31,38.76-.53,24.21-12.51,48.65-38.56,52.6-24.68,3.74-46.78-11.44-56.6-33.52-8.73-19.63-11.4-53.38,10-66.36,12.57-7.64,28.23-3.79,40.26,2.9,10.91,6.06,24.1,14.49,29.54,26.19,5,10.78,3.08,24.18-3.9,33.65-7.59,10.31-20.91,15.09-33.43,14-12.83-1.17-24.17-8.87-31.2-19.5-5.92-8.95-11-23-5.07-33.15,4.37-7.54,13.67-8.07,21.48-8.1,6.74,0,13.8.73,19.92,3.74,12.59,6.19,16.34,23.49,5.7,33.49-5.18,4.87-12.89,6.05-19.57,4-7-2.13-14.73-9.22-12.84-17.29,1.65-7.06,10.41-11.49,17.15-9.24,4.78,1.6,10.6,8.35,6.21,13.3a6.79,6.79,0,0,1-3.7,2,6.5,6.5,0,0,1-3.19-.1c-3.48-1.43-3.28-3.57.63-6.43a.57.57,0,0,0,.3-1.09c-3.22-.9-5.63,2.63-4.58,5.61,1.34,3.82,6.42,4,9.44,2.31,4.22-2.29,4.54-7.35,2.21-11.2a13.27,13.27,0,0,0-14.07-5.86c-12.27,2.51-15.19,16.05-6.4,24.34,8.47,8,23.33,8,30.92-1.21s6.3-23.7-3.29-31.07c-5-3.87-11.37-5.54-17.59-6.22-6.92-.75-15.15-1-21.76,1.57-13.34,5.11-12,22-7.51,32.83,5.15,12.52,15.63,23.17,28.75,27.1s28.6,1,38.73-8.54c9.59-9.07,13.45-23.93,9.18-36.46-2.43-7.14-7.5-12.76-13.23-17.48a115,115,0,0,0-20.9-13.93c-13.08-6.62-30.08-9.11-42.28.79-10.81,8.78-14.13,24-13.79,37.26.38,14.67,4.9,29.48,13.65,41.35,16.29,22.07,50.21,31.23,72.68,12.51,11.17-9.31,16.41-23.72,17.87-37.83C388.9,258.74,386.9,241.41,376.87,228.74Z" transform="translate(-220.74 -6.95)"/></g><g id="Layer_1" data-name="Layer 1"><path class="cls-7" d="M339.45,157.47c-2.19-1.75-48-8.34-46.27,55.8s73.51,100.9,152.26,87.06,4.21-105.81,4.21-105.81Z" transform="translate(-220.74 -6.95)"/><path class="cls-6" d="M344.53,272.31a.6.6,0,0,1-.29-.08,77.69,77.69,0,0,1-29.5-31.72.57.57,0,0,1,.3-.74.57.57,0,0,1,.75.29,76.33,76.33,0,0,0,29,31.19.57.57,0,0,1-.29,1.06Z" transform="translate(-220.74 -6.95)"/><path class="cls-8" d="M459.17,119.5s7.17.52,4.89,10.67-8.83-2.47-8.83-2.47Z" transform="translate(-220.74 -6.95)"/><path class="cls-9" d="M530,315.1c-1.39.79-82.31-3.4-84.12-5.07-.65-.59-.62-4.44-.1-9.92.94-10,6.58-27,9.7-37.5,0,0,28.31,1.91,30.84,3.52s29.82,24.64,29.82,24.64,10.41,4,14.14,10.12a13.43,13.43,0,0,1,1.83,5.52C532.59,310.76,531,314.55,530,315.1Z" transform="translate(-220.74 -6.95)"/><path class="cls-10" d="M530,315.1c-1.39.79-82.31-3.4-84.12-5.07-.65-.59-.62-4.44-.1-9.92l86.33,6.3C532.59,310.76,531,314.55,530,315.1Z" transform="translate(-220.74 -6.95)"/><path class="cls-10" d="M506.8,283.63l-23.68-1.9a.57.57,0,0,1-.26-1l11.6-7.58a.57.57,0,1,1,.62.95l-10.21,6.68,22,1.76a.56.56,0,0,1,.52.61A.58.58,0,0,1,506.8,283.63Z" transform="translate(-220.74 -6.95)"/><path class="cls-11" d="M431,187.78s44.92-31.77,83.69-22-17.85,104-17.85,104l-56.35.13,5.49-27-67.66-.13,29.85-42.27Z" transform="translate(-220.74 -6.95)"/><path class="cls-6" d="M483,193.4a.56.56,0,0,1-.48-.87,70.5,70.5,0,0,1,11.89-13.81.57.57,0,0,1,.8.07.56.56,0,0,1-.06.8,69,69,0,0,0-11.67,13.55A.56.56,0,0,1,483,193.4Z" transform="translate(-220.74 -6.95)"/><path class="cls-12" d="M424.58,142.94l38.57,11.64s.39,26.08-24.1,33.2-27.34-22.58-27.34-22.58Z" transform="translate(-220.74 -6.95)"/><path class="cls-8" d="M445.42,147.87s-1.2,14.65,10.47,13.25S466.84,143,466.84,143Z" transform="translate(-220.74 -6.95)"/><path class="cls-12" d="M354.34,222.44S331.86,141.29,350.79,119s62.87-3.73,62.87-3.73l21,74.48Z" transform="translate(-220.74 -6.95)"/><path class="cls-8" d="M385.68,164.3s11.36-18,16.87-20.05,18.85.65,18.85,2.25S409.06,150,409.06,150s6.94,12.13,7.05,14.85-6.15,10.67-7.52,11.46-4.83-3.63-4.83-3.63-3.81,4.61-9.19,6S383,172,383,172Z" transform="translate(-220.74 -6.95)"/><path d="M402.6,154.88a.6.6,0,0,1-.58-.49.58.58,0,0,1,.48-.68l7.41-1.25a.59.59,0,0,1,.2,1.16l-7.41,1.25Z" transform="translate(-220.74 -6.95)"/><path class="cls-8" d="M367.14,96.12l.36,14.48s2.71,4.09,11.2,4.57c6.32.36,8-1.83,8-1.83l-.54-6.6-1-7.13-15.38-3Z" transform="translate(-220.74 -6.95)"/><path d="M370,97.86a4.58,4.58,0,0,0,.46,1.33c3.39,6.86,12.2,8.17,15.82,8.4l-1.05-6.83Z" transform="translate(-220.74 -6.95)"/><path class="cls-8" d="M387,69s7.71,17.22,5.07,27-11.49,8.29-16.8,6.46a17.57,17.57,0,0,1-7.8-5.05,7.47,7.47,0,0,1-8.28-2.85c-3.35-4.57-1.36-9.87,1.45-11.11s6.19.78,6.19.78l-2.67-5S375,53.57,387,69Z" transform="translate(-220.74 -6.95)"/><path d="M386.42,91a.51.51,0,0,1-.17,0,.57.57,0,0,1-.37-.71c1-3.18-1.41-6.6-1.44-6.63a.57.57,0,1,1,.93-.66c.11.16,2.73,3.92,1.59,7.63A.57.57,0,0,1,386.42,91Z" transform="translate(-220.74 -6.95)"/><path d="M366.13,92.32a.6.6,0,0,1-.41-.17l-4.71-5a.57.57,0,0,1,0-.8.56.56,0,0,1,.8,0l4.71,5a.57.57,0,0,1,0,.8A.56.56,0,0,1,366.13,92.32Z" transform="translate(-220.74 -6.95)"/><path d="M361.16,91a.57.57,0,0,1-.09-1.13l3.25-.5a.57.57,0,0,1,.65.48.55.55,0,0,1-.48.64l-3.24.5Z" transform="translate(-220.74 -6.95)"/><path d="M366.85,84.2a2.16,2.16,0,0,0,3.08-.87c1.29-2-1.56-8-1.56-8s5.36,1.2,8.66-.57S382,68.08,382,68.08s2.45,5.07,9.75,2.82,8.67-12.19.86-14.21-12.05,1.45-12.05,1.45-1-7.21-10.64-3.63c-8.78,3.27-10.24,14.28-10.24,14.28a7,7,0,0,0-6.28,6c-1,5.74,5.72,9.88,5.72,9.88A9.15,9.15,0,0,1,366.85,84.2Z" transform="translate(-220.74 -6.95)"/><path class="cls-13" d="M456.65,169c-3.37,0-7-5.55-7.5-6.26a.56.56,0,1,1,1-.61c1.26,2,5,6.77,7.38,5.53,2.5-1.34,3.67-7.27,3.91-9.45a.57.57,0,0,1,1.13.12c0,.35-1,8.44-4.51,10.33A2.91,2.91,0,0,1,456.65,169Z" transform="translate(-220.74 -6.95)"/><path d="M378.57,84.57a.55.55,0,0,1-.56-.49l-.42-3.22a.56.56,0,0,1,.49-.63.58.58,0,0,1,.64.49l.41,3.21a.57.57,0,0,1-.49.64Z" transform="translate(-220.74 -6.95)"/><path class="cls-13" d="M432.31,187.25a.57.57,0,0,1-.57-.51c-1-10.59-6.14-25.26-6.19-25.4a.58.58,0,0,1,.35-.73.59.59,0,0,1,.72.35c.05.15,5.19,14.95,6.25,25.67a.56.56,0,0,1-.51.62Z" transform="translate(-220.74 -6.95)"/><path d="M388.13,83.79a.57.57,0,0,1-.56-.49l-.48-3.21a.56.56,0,0,1,.48-.64.54.54,0,0,1,.64.47l.48,3.21a.57.57,0,0,1-.47.65Z" transform="translate(-220.74 -6.95)"/><path d="M375.55,78.41a.57.57,0,0,1-.25-.06.58.58,0,0,1-.25-.77c1.17-2.28,4.07-1.7,4.19-1.67a.56.56,0,0,1,.44.67A.58.58,0,0,1,379,77c-.09,0-2.18-.43-2.95,1.08A.58.58,0,0,1,375.55,78.41Z" transform="translate(-220.74 -6.95)"/><path class="cls-14" d="M397.83,164.76l43.9,8.48a3.92,3.92,0,0,0,4.6-3.11l12.11-62.63a4,4,0,0,0-3.12-4.61l-43.9-8.48a3.92,3.92,0,0,0-4.6,3.12l-12.11,62.62A3.93,3.93,0,0,0,397.83,164.76Z" transform="translate(-220.74 -6.95)"/><rect class="cls-15" x="403.34" y="98.59" width="52.58" height="71.65" rx="3.93" transform="translate(605.2 340.97) rotate(-169.06)"/><path class="cls-6" d="M442.38,111a10.65,10.65,0,0,1-2.14-.22l-11-2.14A10,10,0,0,1,424,106a5.08,5.08,0,0,1-1.62-4.52l.9-4.59a.55.55,0,0,1,.66-.45.57.57,0,0,1,.45.67l-.89,4.59a4,4,0,0,0,1.31,3.51,8.88,8.88,0,0,0,4.64,2.34l11,2.14c3.78.74,7.23-.7,7.71-3.19l.9-4.59a.55.55,0,0,1,.66-.45.57.57,0,0,1,.45.67l-.89,4.59C448.78,109.26,445.87,111,442.38,111Z" transform="translate(-220.74 -6.95)"/><path d="M384.89,76.4a.63.63,0,0,1-.32-.1.57.57,0,0,1-.15-.79,2.6,2.6,0,0,1,1.84-1.21,4.28,4.28,0,0,1,3,1.09.56.56,0,0,1,.05.8.57.57,0,0,1-.8.06,3.13,3.13,0,0,0-2.09-.82,1.47,1.47,0,0,0-1,.72A.57.57,0,0,1,384.89,76.4Z" transform="translate(-220.74 -6.95)"/><path class="cls-8" d="M463.37,138.58s10.24-1.18,7.09-5.89-21.69-7-23.66-1.44S463.37,138.58,463.37,138.58Z" transform="translate(-220.74 -6.95)"/><path class="cls-8" d="M462.26,147s10.24-1.18,7.09-5.89-21.69-7-23.66-1.43S462.26,147,462.26,147Z" transform="translate(-220.74 -6.95)"/><path class="cls-8" d="M456.33,154.12a12.88,12.88,0,0,0,6.82.46c2-.44,3.8-1.46,2.78-3.75-2-4.59-17.86-9.35-20.42-4.82C443.6,149.39,452,152.67,456.33,154.12Z" transform="translate(-220.74 -6.95)"/><path d="M464.57,137.43l-11.94-.89a.57.57,0,0,1-.52-.61.54.54,0,0,1,.6-.52l11.9.89a.56.56,0,0,1,.53.6A.58.58,0,0,1,464.57,137.43Z" transform="translate(-220.74 -6.95)"/><path d="M462.65,146.8l-11.95-.9a.56.56,0,0,1-.52-.6.55.55,0,0,1,.61-.53l11.9.89a.57.57,0,0,1,0,1.14Z" transform="translate(-220.74 -6.95)"/><path class="cls-16" d="M372.1,224.07a.63.63,0,0,1-.6-.46l-2-7.54a.63.63,0,0,1,1.21-.32l2,7.54a.63.63,0,0,1-.45.76A.41.41,0,0,1,372.1,224.07Z" transform="translate(-220.74 -6.95)"/><path class="cls-16" d="M431.21,205.15a.62.62,0,0,1-.62-.61l-.21-8a.62.62,0,0,1,.6-.64.63.63,0,0,1,.64.61l.21,8a.62.62,0,0,1-.6.64Z" transform="translate(-220.74 -6.95)"/><path class="cls-16" d="M424.58,210.14a.62.62,0,0,1-.62-.62l0-8.51a.63.63,0,0,1,1.25,0l0,8.51a.62.62,0,0,1-.62.62Z" transform="translate(-220.74 -6.95)"/><path class="cls-6" d="M493.07,257.6l-49.77-1a.57.57,0,0,1,0-1.13l49.77,1a.58.58,0,0,1,.56.58A.57.57,0,0,1,493.07,257.6Z" transform="translate(-220.74 -6.95)"/><path d="M382.31,95.89a5.22,5.22,0,0,1-4.21-2.52.56.56,0,0,1,.2-.77.57.57,0,0,1,.78.19c.06.11,1.54,2.53,4.1,1.85a.56.56,0,0,1,.69.4.57.57,0,0,1-.41.7A4.72,4.72,0,0,1,382.31,95.89Z" transform="translate(-220.74 -6.95)"/><path class="cls-9" d="M603.31,284.16c-.65,1.47-68.32,46-70.78,45.75-.87-.1-3.12-3.22-5.95-7.94-5.15-8.59-10.69-25.64-14.4-36,0,0,23.94-15.24,26.93-15.44s38.63,2.2,38.63,2.2,10.73-3,17.38-.22a13.14,13.14,0,0,1,4.75,3.36C602.82,279.14,603.78,283.15,603.31,284.16Z" transform="translate(-220.74 -6.95)"/><path class="cls-10" d="M603.31,284.16c-.65,1.47-68.32,46-70.78,45.75-.87-.1-3.12-3.22-5.95-7.94l73.29-46.05C602.82,279.14,603.78,283.15,603.31,284.16Z" transform="translate(-220.74 -6.95)"/><path class="cls-10" d="M547.71,285.27a.53.53,0,0,1-.36-.13.55.55,0,0,1-.17-.63l4.85-13a.58.58,0,0,1,.74-.33.57.57,0,0,1,.33.73l-4.28,11.43,18.75-11.6a.57.57,0,1,1,.6,1L548,285.19A.67.67,0,0,1,547.71,285.27Z" transform="translate(-220.74 -6.95)"/><path class="cls-11" d="M354.34,222.44s96.86-49.25,118.21-42.23c28,9.21,78.83,85.23,78.83,85.23l-44.52,43.09s-46.11-62.23-53.49-61.41c-8.54,1-56.57,21.16-73.66,15.66S354.34,222.44,354.34,222.44Z" transform="translate(-220.74 -6.95)"/><path class="cls-6" d="M454.93,247.69a.48.48,0,0,1-.2,0,.58.58,0,0,1-.37-.49c0-.41-.61-10.09,3.08-13.73a4.64,4.64,0,0,1,3.8-1.38,2.6,2.6,0,0,1,2.5,1.52c1.39,3.68-7.4,12.91-8.4,13.94A.55.55,0,0,1,454.93,247.69Zm5.87-14.53a3.54,3.54,0,0,0-2.57,1.07c-2.56,2.54-2.8,8.76-2.78,11.51,3.54-3.84,8-9.69,7.23-11.77-.07-.17-.27-.69-1.53-.79Z" transform="translate(-220.74 -6.95)"/><path class="cls-12" d="M360.5,111.6s-66.88,28.93-55.26,78.87c11.07,47.59,87.4,6,87.4,6l-3.77-37.35L353.25,163Z" transform="translate(-220.74 -6.95)"/><path class="cls-13" d="M390.66,191.17c-1.64,0-3.42-.42-4.28-2-1.42-2.63.81-9.73,1.72-12.34-2,.25-6.7.62-9.26-.84-3.12-1.79,1.84-13.15,3.6-16.92-4.22-.21-23.66-.87-41,2.72a.56.56,0,0,1-.67-.44.57.57,0,0,1,.44-.67c19.68-4.07,42-2.72,42.18-2.7a.56.56,0,0,1,.46.28.58.58,0,0,1,0,.53c-3.4,7.07-6.05,15.28-4.42,16.21,2.88,1.66,9.38.59,9.45.58a.54.54,0,0,1,.53.2.55.55,0,0,1,.09.55c-1,2.67-3.3,10.08-2.1,12.3,1.32,2.45,6.35,1,6.39,1a.57.57,0,1,1,.34,1.08A12.72,12.72,0,0,1,390.66,191.17Z" transform="translate(-220.74 -6.95)"/><path class="cls-13" d="M359.3,158.86c-3,0-13.33-.21-14.75-3a1.89,1.89,0,0,1,.32-2.09,3.59,3.59,0,0,1,2.48-1.41c4.63-.63,12.38,5.24,12.71,5.49a.57.57,0,0,1,.19.63C360.14,158.81,359.8,158.86,359.3,158.86Zm-11.18-5.42a4,4,0,0,0-.61,0,2.46,2.46,0,0,0-1.73,1c-.4.55-.27.81-.22.91.81,1.6,7.4,2.26,12.35,2.37C355.64,156.17,351.18,153.44,348.12,153.44Z" transform="translate(-220.74 -6.95)"/><path class="cls-13" d="M357.46,210.09a.57.57,0,0,1-.21-1.1c.24-.09,23.58-9.07,35.08-16.63a.58.58,0,0,1,.79.16.57.57,0,0,1-.17.79c-11.6,7.62-35.05,16.65-35.29,16.74A.48.48,0,0,1,357.46,210.09Z" transform="translate(-220.74 -6.95)"/><path class="cls-13" d="M371.66,124a2.21,2.21,0,0,1-.74-.12c-3.49-1.18-4-12.57-4-13.86a.59.59,0,0,1,.36-.55.57.57,0,0,1,.63.14,19.52,19.52,0,0,0,10.88,5,15.62,15.62,0,0,0,4,.09.52.52,0,0,1,.3,0,12.26,12.26,0,0,0,1.37-.25,2.52,2.52,0,0,0,1.94-2.67l-.31-3.31a.56.56,0,0,1,.32-.55.53.53,0,0,1,.63.09c1.14,1,6.8,6.39,6.5,8.58a1.19,1.19,0,0,1-.66.94c-2.12,1.08-8.07-1-9.72-1.61C381.62,117.5,375.16,124,371.66,124Zm-3.55-12.66c.29,4.58,1.3,10.83,3.18,11.47s6.9-3.5,10.27-6.84a17.5,17.5,0,0,1-2.95-.18A21.6,21.6,0,0,1,368.11,111.29Zm17.08,4.1c2.73.89,6.08,1.67,7.19,1.1.18-1-2.26-4-5-6.65l.17,1.8A3.66,3.66,0,0,1,385.19,115.39Z" transform="translate(-220.74 -6.95)"/><path class="cls-6" d="M499.37,296.36a.58.58,0,0,1-.41-.17.57.57,0,0,1,0-.81l43.86-42.06a.57.57,0,0,1,.8,0,.56.56,0,0,1,0,.8L499.76,296.2A.54.54,0,0,1,499.37,296.36Z" transform="translate(-220.74 -6.95)"/></g></g></svg>